<svg xmlns="http://www.w3.org/2000/svg" width="24" height="24" viewBox="0 0 24 24" fill="none">
  <path d="M5.99999 6.75C5.99999 6.55109 6.07901 6.36032 6.21966 6.21967C6.36031 6.07902 6.55108 6 6.74999 6H8.99999C9.1989 6 9.38967 6.07902 9.53032 6.21967C9.67097 6.36032 9.74999 6.55109 9.74999 6.75C9.74999 6.94891 9.67097 7.13968 9.53032 7.28033C9.38967 7.42098 9.1989 7.5 8.99999 7.5V8.25H15.21L15.789 6.513C15.8387 6.36372 15.9341 6.23385 16.0617 6.14179C16.1893 6.04972 16.3426 6.00012 16.5 6H18C18.1989 6 18.3897 6.07902 18.5303 6.21967C18.671 6.36032 18.75 6.55109 18.75 6.75C18.75 6.94891 18.671 7.13968 18.5303 7.28033C18.3897 7.42098 18.1989 7.5 18 7.5H17.04L16.5735 8.9025L17.784 10.8375C18.8271 10.4073 19.9937 10.3847 21.0527 10.7741C22.1117 11.1636 22.9858 11.9366 23.5017 12.9401C24.0176 13.9436 24.1377 15.1042 23.8382 16.1921C23.5387 17.28 22.8414 18.2156 21.8846 18.8136C20.9278 19.4116 19.7812 19.6284 18.6721 19.4209C17.5631 19.2134 16.5724 18.5968 15.8965 17.6934C15.2205 16.7899 14.9087 15.6655 15.0227 14.5429C15.1367 13.4204 15.6682 12.3816 16.512 11.6325L15.75 10.4145L12.636 15.3975C12.5686 15.5054 12.4748 15.5943 12.3636 15.656C12.2523 15.7176 12.1272 15.75 12 15.75H8.93849C8.78293 16.6698 8.34536 17.5185 7.68632 18.1787C7.02728 18.8389 6.17934 19.278 5.25983 19.4352C4.34031 19.5924 3.39467 19.46 2.55372 19.0562C1.71278 18.6524 1.0181 17.9973 0.565809 17.1814C0.113514 16.3655 -0.0740447 15.4293 0.0290815 14.5021C0.132208 13.575 0.520921 12.7028 1.14144 12.0063C1.76197 11.3097 2.58362 10.8232 3.49274 10.6141C4.40186 10.405 5.35349 10.4836 6.21599 10.839L7.49999 8.784V7.5H6.74999C6.55108 7.5 6.36031 7.42098 6.21966 7.28033C6.07901 7.13968 5.99999 6.94891 5.99999 6.75ZM8.24999 10.4145L7.48799 11.6355C8.23799 12.3015 8.76299 13.2165 8.93849 14.25H10.647L8.24999 10.4145ZM12 13.5855L14.397 9.75H9.60299L12 13.5855ZM7.40549 14.25C7.27789 13.7565 7.02645 13.3037 6.67499 12.9345L5.85299 14.25H7.40549ZM5.40449 12.138C4.83226 11.9573 4.21898 11.9523 3.64391 12.1238C3.06884 12.2953 2.5584 12.6352 2.17856 13.0998C1.79872 13.5644 1.56693 14.1322 1.51315 14.7299C1.45937 15.3275 1.58606 15.9276 1.87686 16.4525C2.16766 16.9774 2.6092 17.4031 3.14442 17.6745C3.67964 17.9458 4.28395 18.0505 4.87925 17.9748C5.47455 17.8992 6.03348 17.6467 6.48383 17.2501C6.93417 16.8535 7.25522 16.331 7.40549 15.75H4.49999C4.36611 15.75 4.23467 15.7142 4.11932 15.6462C4.00397 15.5783 3.90891 15.4807 3.84401 15.3636C3.77911 15.2465 3.74673 15.1141 3.75025 14.9803C3.75376 14.8465 3.79304 14.716 3.86399 14.6025L5.40449 12.138ZM17.325 12.933C16.8222 13.4625 16.5298 14.1572 16.5026 14.8869C16.4754 15.6165 16.7152 16.3311 17.1771 16.8966C17.6391 17.4621 18.2914 17.8397 19.0118 17.9586C19.7322 18.0776 20.4713 17.9297 21.0905 17.5427C21.7097 17.1557 22.1665 16.5562 22.3753 15.8565C22.584 15.1568 22.5305 14.405 22.2246 13.7419C21.9187 13.0789 21.3815 12.5502 20.7137 12.255C20.0459 11.9597 19.2933 11.9181 18.597 12.138L20.136 14.6025C20.1882 14.686 20.2234 14.779 20.2397 14.8761C20.256 14.9733 20.2529 15.0727 20.2308 15.1686C20.2086 15.2646 20.1678 15.3553 20.1106 15.4355C20.0534 15.5157 19.981 15.5838 19.8975 15.636C19.814 15.6882 19.721 15.7234 19.6238 15.7397C19.5267 15.756 19.4273 15.7529 19.3313 15.7308C19.2354 15.7086 19.1447 15.6678 19.0645 15.6106C18.9843 15.5534 18.9162 15.481 18.864 15.3975L17.325 12.9345V12.933Z" fill="#1F2937"/>
</svg>