<svg xmlns="http://www.w3.org/2000/svg" width="14" height="14" viewBox="0 0 14 14" fill="none">
  <path fill-rule="evenodd" clip-rule="evenodd" d="M4.0653 1.4403C4.10594 1.39956 4.15422 1.36723 4.20737 1.34518C4.26052 1.32312 4.3175 1.31177 4.37505 1.31177C4.4326 1.31177 4.48958 1.32312 4.54273 1.34518C4.59588 1.36723 4.64416 1.39956 4.6848 1.4403L9.9348 6.6903C9.97554 6.73094 10.0079 6.77922 10.0299 6.83237C10.052 6.88552 10.0633 6.9425 10.0633 7.00005C10.0633 7.0576 10.052 7.11458 10.0299 7.16773C10.0079 7.22088 9.97554 7.26916 9.9348 7.3098L4.6848 12.5598C4.60265 12.642 4.49123 12.6881 4.37505 12.6881C4.25887 12.6881 4.14745 12.642 4.0653 12.5598C3.98315 12.4776 3.937 12.3662 3.937 12.25C3.937 12.1339 3.98315 12.0225 4.0653 11.9403L9.00642 7.00005L4.0653 2.0598C4.02456 2.01916 3.99223 1.97088 3.97018 1.91773C3.94812 1.86458 3.93677 1.8076 3.93677 1.75005C3.93677 1.6925 3.94812 1.63552 3.97018 1.58237C3.99223 1.52922 4.02456 1.48094 4.0653 1.4403Z" fill="white"/>
</svg>