<svg width="36" height="36" viewBox="0 0 36 36" fill="none" xmlns="http://www.w3.org/2000/svg">
<path d="M4.05666 10.8075L4.05667 10.8075L4.05756 10.8066C4.11562 10.7484 4.18459 10.7022 4.26052 10.6707C4.33645 10.6392 4.41785 10.623 4.50006 10.623C4.58227 10.623 4.66367 10.6392 4.7396 10.6707C4.81553 10.7022 4.8845 10.7484 4.94256 10.8066L4.94297 10.807L17.6465 23.5128L18.0001 23.8664L18.3536 23.5128L31.0571 10.8071C31.1153 10.7489 31.1843 10.7027 31.2603 10.6713C31.3363 10.6398 31.4178 10.6236 31.5001 10.6236C31.5823 10.6236 31.6638 10.6398 31.7398 10.6713C31.8158 10.7027 31.8848 10.7489 31.943 10.807C32.0012 10.8652 32.0473 10.9343 32.0788 11.0103L32.5407 10.8189L32.0788 11.0103C32.1103 11.0863 32.1265 11.1677 32.1265 11.25C32.1265 11.3323 32.1103 11.4137 32.0788 11.4897L32.5407 11.6811L32.0788 11.4897C32.0473 11.5657 32.0012 11.6348 31.943 11.6929L18.443 25.1929L18.4426 25.1934C18.3845 25.2516 18.3155 25.2978 18.2396 25.3293C18.1637 25.3608 18.0823 25.377 18.0001 25.377C17.9178 25.377 17.8364 25.3608 17.7605 25.3293C17.6846 25.2978 17.6156 25.2516 17.5576 25.1934L17.5571 25.1929L4.05711 11.6929L4.05666 11.6925C3.99846 11.6344 3.95228 11.5655 3.92077 11.4895C3.88927 11.4136 3.87305 11.3322 3.87305 11.25C3.87305 11.1678 3.88927 11.0864 3.92077 11.0105C3.95228 10.9345 3.99846 10.8656 4.05666 10.8075Z" fill="#1F2937" stroke="#1F2937"/>
</svg>
