<svg xmlns="http://www.w3.org/2000/svg" width="10" height="10" viewBox="0 0 10 10" fill="none">
    <path fill-rule="evenodd" clip-rule="evenodd" d="M8.65866 1.34126C8.68776 1.37029 8.71085 1.40477 8.7266 1.44274C8.74236 1.4807 8.75046 1.5214 8.75046 1.56251C8.75046 1.60361 8.74236 1.64431 8.7266 1.68228C8.71085 1.72025 8.68776 1.75473 8.65866 1.78376L1.78366 8.65876C1.72498 8.71744 1.64539 8.7504 1.56241 8.7504C1.47942 8.7504 1.39984 8.71744 1.34116 8.65876C1.28248 8.60008 1.24951 8.52049 1.24951 8.43751C1.24951 8.35453 1.28248 8.27494 1.34116 8.21626L8.21616 1.34126C8.24518 1.31216 8.27967 1.28907 8.31764 1.27331C8.3556 1.25756 8.3963 1.24945 8.43741 1.24945C8.47851 1.24945 8.51921 1.25756 8.55718 1.27331C8.59514 1.28907 8.62963 1.31216 8.65866 1.34126Z" fill="#6B7280"/>
    <path fill-rule="evenodd" clip-rule="evenodd" d="M1.34132 1.34126C1.31222 1.37029 1.28913 1.40477 1.27338 1.44274C1.25762 1.4807 1.24951 1.5214 1.24951 1.56251C1.24951 1.60361 1.25762 1.64431 1.27338 1.68228C1.28913 1.72025 1.31222 1.75473 1.34132 1.78376L8.21632 8.65876C8.275 8.71744 8.35459 8.7504 8.43757 8.7504C8.52056 8.7504 8.60014 8.71744 8.65882 8.65876C8.7175 8.60008 8.75047 8.52049 8.75047 8.43751C8.75047 8.35453 8.7175 8.27494 8.65882 8.21626L1.78382 1.34126C1.75479 1.31216 1.72031 1.28907 1.68234 1.27331C1.64438 1.25756 1.60367 1.24945 1.56257 1.24945C1.52147 1.24945 1.48077 1.25756 1.4428 1.27331C1.40483 1.28907 1.37035 1.31216 1.34132 1.34126Z" fill="#6B7280"/>
</svg>