<svg xmlns="http://www.w3.org/2000/svg" width="24" height="24" viewBox="0 0 24 24" fill="none">
  <path d="M8.68933 1.50013C9.27513 0.914344 10.2249 0.914342 10.8107 1.50013L11.7803 2.46979C12.0732 2.7627 12.0732 3.23757 11.7803 3.53046C11.4874 3.82335 11.0126 3.82335 10.7197 3.53046L9.75 2.56078L3 9.31078V18.7501C3 19.1644 3.33579 19.5001 3.75 19.5001C4.16421 19.5001 4.5 19.8359 4.5 20.2501C4.5 20.6644 4.16421 21.0001 3.75 21.0001C2.50735 21.0001 1.5 19.9928 1.5 18.7501V10.8108L1.28033 11.0305C0.987436 11.3233 0.512563 11.3233 0.21967 11.0305C-0.0732235 10.7376 -0.0732235 10.2627 0.21967 9.9698L8.68933 1.50013ZM13.1893 3.00013C13.7751 2.41434 14.7249 2.41434 15.3106 3.00013L18 5.68947V3.75013C18 3.33591 18.3358 3.00013 18.75 3.00013H20.25C20.6642 3.00013 21 3.33591 21 3.75013V8.68947L23.7804 11.4698C24.0732 11.7627 24.0732 12.2376 23.7804 12.5305C23.4874 12.8233 23.0126 12.8233 22.7196 12.5305L22.5 12.3108V20.2501C22.5 21.4928 21.4926 22.5001 20.25 22.5001H8.25C7.00736 22.5001 6 21.4928 6 20.2501V12.3108L5.78032 12.5305C5.48743 12.8233 5.01257 12.8233 4.71968 12.5305C4.42677 12.2376 4.42677 11.7627 4.71968 11.4698L13.1893 3.00013ZM14.25 4.06078L7.5 10.8108V20.2501C7.5 20.6644 7.83579 21.0001 8.25 21.0001H20.25C20.6642 21.0001 21 20.6644 21 20.2501V10.8108L14.25 4.06078Z" fill="#1F2937"/>
</svg>