<svg class="flex-shrink-0 w-9 h-9 text-gray-500 absolute top-1/2 right-2 transform -translate-y-1/2 opacity-50" width="80" height="80" viewBox="0 0 60 60" fill="lightgray" xmlns="http://www.w3.org/2000/svg">
    <path d="M48.75 9.375C48.75 7.88316 49.3426 6.45242 50.3975 5.39752C51.4524 4.34263 52.8832 3.75 54.375 3.75C55.8668 3.75 57.2976 4.34263 58.3525 5.39752C59.4074 6.45242 60 7.88316 60 9.375V50.625C60 52.1168 59.4074 53.5476 58.3525 54.6025C57.2976 55.6574 55.8668 56.25 54.375 56.25C52.8832 56.25 51.4524 55.6574 50.3975 54.6025C49.3426 53.5476 48.75 52.1168 48.75 50.625V9.375ZM45 12.09C37.2487 15.6525 27.9788 17.6438 18.75 18.3V41.6887C20.1121 41.7656 21.4725 41.8718 22.83 42.0075C30.5287 42.7725 37.9725 44.5125 45 47.8575V12.09ZM15 41.4937V18.5025C12.45 18.6038 9.75375 18.6637 7.47 18.7013C5.48377 18.7288 3.58784 19.5354 2.19061 20.9473C0.793387 22.3593 0.00669294 24.2636 0 26.25L0 33.75C0 37.8975 3.36 41.235 7.4775 41.2837C8.09753 41.2915 8.71754 41.3015 9.3375 41.3138C11.2256 41.3515 13.1133 41.4115 15 41.4937ZM20.2125 45.5475C21.2812 45.6263 22.3462 45.7238 23.4 45.84L24.3488 52.1775C24.452 52.7198 24.4342 53.2783 24.2967 53.813C24.1591 54.3477 23.9052 54.8454 23.5531 55.2706C23.201 55.6958 22.7593 56.038 22.2596 56.2728C21.7599 56.5076 21.2146 56.6291 20.6625 56.6287H18.6075C17.8786 56.6287 17.1655 56.4162 16.5554 56.0173C15.9454 55.6183 15.4648 55.0502 15.1725 54.3825L10.245 45.0825C12.3609 45.1353 14.4761 45.2153 16.59 45.3225C17.8162 45.3863 19.0275 45.4613 20.2125 45.5475Z"/>
</svg>