<svg width="80" height="80" viewBox="0 0 60 60" fill="lightgray" xmlns="http://www.w3.org/2000/svg">
    <path d="M29.865 5.7262C18.7013 5.7262 8.97377 12.1162 6.16502 21.1949H4.10252C3.5558 21.1955 3.01583 21.3157 2.52044 21.5469C2.02504 21.7782 1.5862 22.115 1.23466 22.5337C0.883115 22.9524 0.627377 23.4429 0.48536 23.9708C0.343343 24.4988 0.31848 25.0514 0.412515 25.5899L1.36502 31.0649C1.592 32.3702 2.27242 33.5534 3.28636 34.4062C4.30029 35.2589 5.58267 35.7264 6.90752 35.7262H7.89377C9.01877 37.6499 10.4738 39.3937 12.1875 40.9087L9.45376 50.1974C9.37156 50.4771 9.3557 50.7721 9.40744 51.059C9.45918 51.3459 9.5771 51.6167 9.75182 51.8501C9.92655 52.0834 10.1533 52.2728 10.414 52.4032C10.6747 52.5336 10.9623 52.6014 11.2538 52.6012H18.7538C19.1406 52.6012 19.5181 52.4816 19.8343 52.2587C20.1505 52.0358 20.39 51.7206 20.52 51.3562L22.3275 46.2899C24.7088 46.9387 27.24 47.2912 29.8688 47.2912C32.52 47.2912 35.0738 46.9349 37.4738 46.2712L39.51 51.4162C39.6484 51.7658 39.8886 52.0657 40.1996 52.277C40.5105 52.4883 40.8778 52.6013 41.2538 52.6012H48.7538C49.0463 52.6009 49.3348 52.5321 49.596 52.4004C49.8573 52.2687 50.0841 52.0776 50.2583 51.8426C50.4325 51.6075 50.5492 51.335 50.5993 51.0467C50.6493 50.7584 50.6311 50.4624 50.5463 50.1824L47.6925 40.785C51.7875 37.1062 54.375 32.0962 54.375 26.5087C54.375 25.9649 54.3488 25.4212 54.3 24.8924C55.2788 24.4799 56.205 23.8949 56.9438 23.2274C58.125 24.3749 60 24.3749 60 21.6637C60 22.4999 58.125 22.4999 58.2713 21.5662C58.4288 21.2652 58.5424 20.9432 58.6088 20.6099C58.697 20.1756 58.6737 19.726 58.5413 19.3031C58.4088 18.8801 58.1714 18.4976 57.8513 18.1912C57.5136 17.8431 57.0692 17.6179 56.5889 17.5513C56.1085 17.4847 55.6197 17.5806 55.2 17.8237C54.8142 18.0369 54.4851 18.3396 54.2404 18.7063C53.9957 19.073 53.8425 19.4931 53.7938 19.9312C53.7038 20.8424 54.1013 21.7312 54.9938 22.3837C54.6841 22.5978 54.3595 22.7895 54.0225 22.9574C52.02 12.9674 41.7075 5.7262 29.865 5.7262ZM56.7638 20.2612C56.697 20.5463 56.5719 20.8144 56.3963 21.0487C56.3402 21.0194 56.2851 20.9882 56.2313 20.9549C55.6838 20.6174 55.6425 20.2987 55.6613 20.1187C55.6797 19.9841 55.7289 19.8556 55.805 19.7431C55.8811 19.6306 55.982 19.5372 56.1 19.4699C56.2838 19.3687 56.4 19.3912 56.5238 19.5149C56.628 19.6056 56.7055 19.7231 56.7478 19.8546C56.7901 19.9861 56.7956 20.1267 56.7638 20.2612ZM23.0175 17.8237C22.7773 17.9052 22.523 17.9371 22.2701 17.9175C22.0172 17.8979 21.7709 17.8272 21.5461 17.7096C21.3213 17.5921 21.1227 17.4301 20.9623 17.2336C20.802 17.037 20.6831 16.81 20.613 16.5662C20.5429 16.3224 20.523 16.0669 20.5546 15.8152C20.5861 15.5635 20.6683 15.3208 20.7964 15.1018C20.9244 14.8828 21.0955 14.6921 21.2994 14.5411C21.5033 14.3902 21.7357 14.2822 21.9825 14.2237C24.5458 13.4912 27.1991 13.1214 29.865 13.1249C32.7263 13.1249 35.4788 13.5374 38.04 14.3062C38.2759 14.3769 38.4956 14.4933 38.6865 14.6489C38.8773 14.8044 39.0357 14.9961 39.1525 15.2128C39.2694 15.4296 39.3424 15.6672 39.3673 15.9122C39.3923 16.1572 39.3688 16.4047 39.2981 16.6406C39.2275 16.8765 39.111 17.0961 38.9555 17.287C38.7999 17.4779 38.6083 17.6363 38.3915 17.7531C38.1748 17.8699 37.9371 17.9429 37.6921 17.9679C37.4471 17.9929 37.1997 17.9694 36.9638 17.8987C34.6598 17.2147 32.2684 16.8698 29.865 16.8749C27.465 16.8749 25.1588 17.2124 23.0175 17.8274V17.8237ZM18.75 23.4374C18.75 24.1834 18.4537 24.8987 17.9263 25.4262C17.3988 25.9536 16.6834 26.2499 15.9375 26.2499C15.1916 26.2499 14.4762 25.9536 13.9488 25.4262C13.4213 24.8987 13.125 24.1834 13.125 23.4374C13.125 22.6915 13.4213 21.9762 13.9488 21.4487C14.4762 20.9213 15.1916 20.6249 15.9375 20.6249C16.6834 20.6249 17.3988 20.9213 17.9263 21.4487C18.4537 21.9762 18.75 22.6915 18.75 23.4374Z"/>
</svg>