<svg xmlns="http://www.w3.org/2000/svg" width="14" height="14" viewBox="0 0 14 14" fill="none">
  <g clip-path="url(#clip0_739_361)">
    <path d="M1.75 0C1.28587 0 0.840752 0.184374 0.512563 0.512563C0.184374 0.840752 0 1.28587 0 1.75L0 12.25C0 12.7141 0.184374 13.1592 0.512563 13.4874C0.840752 13.8156 1.28587 14 1.75 14H12.25C12.7141 14 13.1592 13.8156 13.4874 13.4874C13.8156 13.1592 14 12.7141 14 12.25V1.75C14 1.28587 13.8156 0.840752 13.4874 0.512563C13.1592 0.184374 12.7141 0 12.25 0L1.75 0ZM7.4375 3.9375V6.5625H10.0625C10.1785 6.5625 10.2898 6.60859 10.3719 6.69064C10.4539 6.77269 10.5 6.88397 10.5 7C10.5 7.11603 10.4539 7.22731 10.3719 7.30936C10.2898 7.39141 10.1785 7.4375 10.0625 7.4375H7.4375V10.0625C7.4375 10.1785 7.39141 10.2898 7.30936 10.3719C7.22731 10.4539 7.11603 10.5 7 10.5C6.88397 10.5 6.77269 10.4539 6.69064 10.3719C6.60859 10.2898 6.5625 10.1785 6.5625 10.0625V7.4375H3.9375C3.82147 7.4375 3.71019 7.39141 3.62814 7.30936C3.54609 7.22731 3.5 7.11603 3.5 7C3.5 6.88397 3.54609 6.77269 3.62814 6.69064C3.71019 6.60859 3.82147 6.5625 3.9375 6.5625H6.5625V3.9375C6.5625 3.82147 6.60859 3.71019 6.69064 3.62814C6.77269 3.54609 6.88397 3.5 7 3.5C7.11603 3.5 7.22731 3.54609 7.30936 3.62814C7.39141 3.71019 7.4375 3.82147 7.4375 3.9375Z" fill="white" fill-opacity="0.9"/>
  </g>
  <defs>
    <clipPath id="clip0_739_361">
      <rect width="14" height="14" fill="white"/>
    </clipPath>
  </defs>
</svg>