<svg xmlns="http://www.w3.org/2000/svg" width="16" height="16" viewBox="0 0 16 16" fill="none">
  <g clip-path="url(#clip0_1034_1872)">
    <path d="M7.65705 6.247C7.76706 5.917 8.23306 5.917 8.34306 6.247L8.98805 8.184C9.13003 8.6098 9.36923 8.99668 9.6867 9.31398C10.0042 9.63127 10.3912 9.87026 10.8171 10.012L12.7531 10.657C13.0831 10.767 13.0831 11.233 12.7531 11.343L10.8161 11.988C10.3903 12.13 10.0034 12.3692 9.68608 12.6866C9.36878 13.0041 9.12979 13.3911 8.98805 13.817L8.34306 15.753C8.31934 15.8253 8.27341 15.8882 8.21181 15.9328C8.15022 15.9774 8.07611 16.0014 8.00005 16.0014C7.924 16.0014 7.84989 15.9774 7.7883 15.9328C7.7267 15.8882 7.68077 15.8253 7.65705 15.753L7.01205 13.816C6.87018 13.3903 6.63114 13.0035 6.31385 12.6862C5.99656 12.3689 5.60975 12.1299 5.18405 11.988L3.24705 11.343C3.17479 11.3193 3.11187 11.2734 3.06726 11.2118C3.02264 11.1502 2.99862 11.0761 2.99862 11C2.99862 10.9239 3.02264 10.8498 3.06726 10.7882C3.11187 10.7266 3.17479 10.6807 3.24705 10.657L5.18405 10.012C5.60975 9.87013 5.99656 9.63108 6.31385 9.31379C6.63114 8.9965 6.87018 8.60969 7.01205 8.184L7.65705 6.247ZM3.79405 1.148C3.80839 1.10469 3.83602 1.06701 3.873 1.0403C3.90998 1.01359 3.95444 0.999211 4.00005 0.999211C4.04567 0.999211 4.09013 1.01359 4.12711 1.0403C4.16409 1.06701 4.19171 1.10469 4.20605 1.148L4.59305 2.31C4.76605 2.828 5.17205 3.234 5.69005 3.407L6.85206 3.794C6.89536 3.80834 6.93305 3.83596 6.95976 3.87294C6.98647 3.90992 7.00084 3.95438 7.00084 4C7.00084 4.04562 6.98647 4.09007 6.95976 4.12705C6.93305 4.16404 6.89536 4.19166 6.85206 4.206L5.69005 4.593C5.43458 4.67811 5.20244 4.82156 5.01203 5.01197C4.82162 5.20238 4.67817 5.43452 4.59305 5.69L4.20605 6.852C4.19171 6.8953 4.16409 6.93299 4.12711 6.9597C4.09013 6.98641 4.04567 7.00079 4.00005 7.00079C3.95444 7.00079 3.90998 6.98641 3.873 6.9597C3.83602 6.93299 3.80839 6.8953 3.79405 6.852L3.40705 5.69C3.32194 5.43452 3.17849 5.20238 2.98808 5.01197C2.79767 4.82156 2.56553 4.67811 2.31005 4.593L1.14805 4.206C1.10475 4.19166 1.06706 4.16404 1.04035 4.12705C1.01364 4.09007 0.999268 4.04562 0.999268 4C0.999268 3.95438 1.01364 3.90992 1.04035 3.87294C1.06706 3.83596 1.10475 3.80834 1.14805 3.794L2.31005 3.407C2.56553 3.32188 2.79767 3.17843 2.98808 2.98802C3.17849 2.79761 3.32194 2.56547 3.40705 2.31L3.79405 1.148ZM10.8631 0.098998C10.8729 0.0705243 10.8914 0.0458339 10.916 0.0283596C10.9405 0.0108853 10.9699 0.00149536 11.0001 0.00149536C11.0302 0.00149536 11.0596 0.0108853 11.0841 0.0283596C11.1087 0.0458339 11.1272 0.0705243 11.1371 0.098998L11.3951 0.872998C11.5101 1.219 11.7811 1.49 12.1271 1.605L12.9011 1.863C12.9295 1.87287 12.9542 1.89137 12.9717 1.91592C12.9892 1.94047 12.9986 1.96986 12.9986 2C12.9986 2.03013 12.9892 2.05952 12.9717 2.08407C12.9542 2.10863 12.9295 2.12713 12.9011 2.137L12.1271 2.395C11.9565 2.45172 11.8016 2.54741 11.6745 2.67448C11.5475 2.80155 11.4518 2.95649 11.3951 3.127L11.1371 3.901C11.1272 3.92947 11.1087 3.95416 11.0841 3.97164C11.0596 3.98911 11.0302 3.9985 11.0001 3.9985C10.9699 3.9985 10.9405 3.98911 10.916 3.97164C10.8914 3.95416 10.8729 3.92947 10.8631 3.901L10.6051 3.127C10.5483 2.95649 10.4526 2.80155 10.3256 2.67448C10.1985 2.54741 10.0436 2.45172 9.87305 2.395L9.10005 2.137C9.07158 2.12713 9.04689 2.10863 9.02942 2.08407C9.01194 2.05952 9.00255 2.03013 9.00255 2C9.00255 1.96986 9.01194 1.94047 9.02942 1.91592C9.04689 1.89137 9.07158 1.87287 9.10005 1.863L9.87405 1.605C10.2201 1.49 10.4911 1.219 10.6061 0.872998L10.8631 0.099998V0.098998Z" fill="#1F2937"/>
  </g>
  <defs>
    <clipPath id="clip0_1034_1872">
      <rect width="16" height="16" fill="white"/>
    </clipPath>
  </defs>
</svg>