<svg width="80" height="80" viewBox="0 0 60 60" fill="lightgray" xmlns="http://www.w3.org/2000/svg">
    <path d="M60 7.5C60 5.51088 59.2098 3.60322 57.8033 2.1967C56.3968 0.790176 54.4891 0 52.5 0L7.5 0C5.51088 0 3.60322 0.790176 2.1967 2.1967C0.790176 3.60322 0 5.51088 0 7.5L0 37.5C0 39.4891 0.790176 41.3968 2.1967 42.8033C3.60322 44.2098 5.51088 45 7.5 45H43.4475C44.442 45.0002 45.3957 45.3954 46.0988 46.0988L56.7975 56.7975C57.0595 57.0602 57.3936 57.2392 57.7574 57.312C58.1212 57.3847 58.4984 57.3479 58.8413 57.2062C59.1841 57.0644 59.4772 56.8242 59.6835 56.5158C59.8898 56.2074 59.9999 55.8448 60 55.4738V7.5ZM18.75 22.5C18.75 23.4946 18.3549 24.4484 17.6516 25.1516C16.9484 25.8549 15.9946 26.25 15 26.25C14.0054 26.25 13.0516 25.8549 12.3483 25.1516C11.6451 24.4484 11.25 23.4946 11.25 22.5C11.25 21.5054 11.6451 20.5516 12.3483 19.8484C13.0516 19.1451 14.0054 18.75 15 18.75C15.9946 18.75 16.9484 19.1451 17.6516 19.8484C18.3549 20.5516 18.75 21.5054 18.75 22.5ZM33.75 22.5C33.75 23.4946 33.3549 24.4484 32.6516 25.1516C31.9484 25.8549 30.9946 26.25 30 26.25C29.0054 26.25 28.0516 25.8549 27.3484 25.1516C26.6451 24.4484 26.25 23.4946 26.25 22.5C26.25 21.5054 26.6451 20.5516 27.3484 19.8484C28.0516 19.1451 29.0054 18.75 30 18.75C30.9946 18.75 31.9484 19.1451 32.6516 19.8484C33.3549 20.5516 33.75 21.5054 33.75 22.5ZM45 26.25C44.0054 26.25 43.0516 25.8549 42.3484 25.1516C41.6451 24.4484 41.25 23.4946 41.25 22.5C41.25 21.5054 41.6451 20.5516 42.3484 19.8484C43.0516 19.1451 44.0054 18.75 45 18.75C45.9946 18.75 46.9484 19.1451 47.6516 19.8484C48.3549 20.5516 48.75 21.5054 48.75 22.5C48.75 23.4946 48.3549 24.4484 47.6516 25.1516C46.9484 25.8549 45.9946 26.25 45 26.25Z"/>
</svg>