<svg xmlns="http://www.w3.org/2000/svg" width="24" height="24" viewBox="0 0 24 24" fill="none">
  <path d="M5.25 5.25C4.329 3.924 5.139 2.307 6.537 1.5L12 10.839L17.463 1.5C18.861 2.307 19.671 3.924 18.75 5.25L13.215 12.915L15.549 16.9065C16.376 16.4853 17.3299 16.3857 18.2261 16.627C19.1223 16.8683 19.8971 17.4334 20.4008 18.213C20.9045 18.9926 21.1011 19.9312 20.9528 20.8474C20.8044 21.7636 20.3216 22.5922 19.5977 23.173C18.8737 23.7538 17.9601 24.0455 17.0335 23.9917C16.107 23.9379 15.2333 23.5424 14.5815 22.8817C13.9296 22.221 13.546 21.342 13.5047 20.4148C13.4634 19.4876 13.7675 18.578 14.358 17.862L12 14.595L9.642 17.8605C10.2325 18.5765 10.5366 19.4861 10.4953 20.4133C10.454 21.3405 10.0704 22.2195 9.41853 22.8802C8.76671 23.5409 7.89302 23.9364 6.96646 23.9902C6.0399 24.044 5.1263 23.7523 4.40236 23.1715C3.67841 22.5907 3.19557 21.7621 3.04722 20.8459C2.89887 19.9297 3.09554 18.9911 3.5992 18.2115C4.10287 17.4319 4.87773 16.8668 5.77393 16.6255C6.67013 16.3842 7.62398 16.4838 8.451 16.905L10.785 12.915L5.25 5.25ZM9 20.25C9 19.6533 8.76295 19.081 8.34099 18.659C7.91904 18.2371 7.34674 18 6.75 18C6.15327 18 5.58097 18.2371 5.15901 18.659C4.73706 19.081 4.5 19.6533 4.5 20.25C4.5 20.8467 4.73706 21.419 5.15901 21.841C5.58097 22.2629 6.15327 22.5 6.75 22.5C7.34674 22.5 7.91904 22.2629 8.34099 21.841C8.76295 21.419 9 20.8467 9 20.25ZM19.5 20.25C19.5 19.6533 19.263 19.081 18.841 18.659C18.419 18.2371 17.8467 18 17.25 18C16.6533 18 16.081 18.2371 15.659 18.659C15.2371 19.081 15 19.6533 15 20.25C15 20.8467 15.2371 21.419 15.659 21.841C16.081 22.2629 16.6533 22.5 17.25 22.5C17.8467 22.5 18.419 22.2629 18.841 21.841C19.263 21.419 19.5 20.8467 19.5 20.25Z" fill="#1F2937"/>
</svg>