<svg width="14" height="14" viewBox="0 0 14 14" fill="none" xmlns="http://www.w3.org/2000/svg">
<g clip-path="url(#clip0_1566_13529)">
<path d="M8.80878 0.761177C8.57325 0.52015 8.29193 0.32863 7.98133 0.197872C7.67074 0.0671139 7.33715 -0.000244141 7.00015 -0.000244141C6.66316 -0.000244141 6.32956 0.0671139 6.01897 0.197872C5.70837 0.32863 5.42705 0.52015 5.19153 0.761177L4.64727 1.31943L3.86853 1.3098C3.53143 1.30581 3.19694 1.36926 2.88473 1.49643C2.57252 1.62359 2.28888 1.8119 2.0505 2.05028C1.81212 2.28866 1.62382 2.57229 1.49665 2.88451C1.36949 3.19672 1.30604 3.53121 1.31003 3.8683L1.31878 4.64705L0.762275 5.1913C0.521248 5.42683 0.329728 5.70815 0.19897 6.01874C0.0682126 6.32934 0.000854492 6.66293 0.000854492 6.99993C0.000854492 7.33692 0.0682126 7.67052 0.19897 7.98111C0.329728 8.2917 0.521248 8.57303 0.762275 8.80855L1.31965 9.3528L1.31003 10.1316C1.30604 10.4686 1.36949 10.8031 1.49665 11.1153C1.62382 11.4276 1.81212 11.7112 2.0505 11.9496C2.28888 12.188 2.57252 12.3763 2.88473 12.5034C3.19694 12.6306 3.53143 12.694 3.86853 12.6901L4.64727 12.6813L5.19153 13.2378C5.42705 13.4788 5.70837 13.6703 6.01897 13.8011C6.32956 13.9319 6.66316 13.9992 7.00015 13.9992C7.33715 13.9992 7.67074 13.9319 7.98133 13.8011C8.29193 13.6703 8.57325 13.4788 8.80878 13.2378L9.35303 12.6804L10.1318 12.6901C10.4689 12.694 10.8034 12.6306 11.1156 12.5034C11.4278 12.3763 11.7114 12.188 11.9498 11.9496C12.1882 11.7112 12.3765 11.4276 12.5036 11.1153C12.6308 10.8031 12.6943 10.4686 12.6903 10.1316L12.6815 9.3528L13.238 8.80855C13.4791 8.57303 13.6706 8.2917 13.8013 7.98111C13.9321 7.67052 13.9994 7.33692 13.9994 6.99993C13.9994 6.66293 13.9321 6.32934 13.8013 6.01874C13.6706 5.70815 13.4791 5.42683 13.238 5.1913L12.6806 4.64705L12.6903 3.8683C12.6943 3.53121 12.6308 3.19672 12.5036 2.88451C12.3765 2.57229 12.1882 2.28866 11.9498 2.05028C11.7114 1.8119 11.4278 1.62359 11.1156 1.49643C10.8034 1.36926 10.4689 1.30581 10.1318 1.3098L9.35303 1.31855L8.80878 0.762052V0.761177ZM9.0599 5.99718L6.4349 8.62218C6.39426 8.66292 6.34598 8.69524 6.29283 8.7173C6.23968 8.73936 6.1827 8.75071 6.12515 8.75071C6.0676 8.75071 6.01062 8.73936 5.95747 8.7173C5.90432 8.69524 5.85604 8.66292 5.8154 8.62218L4.5029 7.30968C4.46222 7.269 4.42996 7.22071 4.40794 7.16756C4.38593 7.11442 4.3746 7.05745 4.3746 6.99993C4.3746 6.9424 4.38593 6.88544 4.40794 6.83229C4.42996 6.77914 4.46222 6.73085 4.5029 6.69018C4.54358 6.6495 4.59187 6.61723 4.64501 6.59522C4.69816 6.5732 4.75512 6.56187 4.81265 6.56187C4.87018 6.56187 4.92714 6.5732 4.98029 6.59522C5.03343 6.61723 5.08172 6.6495 5.1224 6.69018L6.12515 7.6938L8.4404 5.37768C8.52255 5.29553 8.63397 5.24937 8.75015 5.24937C8.86633 5.24937 8.97775 5.29553 9.0599 5.37768C9.14205 5.45983 9.1882 5.57125 9.1882 5.68743C9.1882 5.80361 9.14205 5.91503 9.0599 5.99718Z" fill="#2563EB"/>
</g>
<defs>
<clipPath id="clip0_1566_13529">
<rect width="14" height="14" fill="white"/>
</clipPath>
</defs>
</svg>
