<svg xmlns="http://www.w3.org/2000/svg" width="24" height="24" viewBox="0 0 24 24" fill="none">
  <path d="M10.5 9H13.5V12H16.5V15H13.5V18H10.5V15H7.5V12H10.5V9Z" fill="#1F2937"/>
  <path d="M3 1.5C3 0.671572 3.67158 0 4.5 0H19.5C20.3284 0 21 0.671572 21 1.5V4.5C21 5.32842 20.3284 6 19.5 6V21.75C19.5 22.9926 18.4926 24 17.25 24H6.75C5.50735 24 4.5 22.9926 4.5 21.75V6C3.67158 6 3 5.32842 3 4.5V1.5ZM6 6V21.75C6 22.1642 6.33579 22.5 6.75 22.5H17.25C17.6642 22.5 18 22.1642 18 21.75V6H6ZM4.5 4.5H19.5V1.5H4.5V4.5Z" fill="#1F2937"/>
</svg>