<svg width="50" height="50" opacity="0.05" viewBox="0 0 50 50" fill="none" xmlns="http://www.w3.org/2000/svg">
<g clip-path="url(#clip0_683_14809)">
<path fill-rule="evenodd" clip-rule="evenodd" d="M0 0H25V25H0V0ZM3.57143 3.57143H21.4286V21.4286H3.57143V3.57143ZM7.14286 7.14286H17.8571V17.8571H7.14286V7.14286ZM10.7143 10.7143H14.2857V14.2857H10.7143V10.7143ZM28.5714 3.57143H46.4286V21.4286H28.5714V3.57143ZM32.1429 7.14286H42.8571V17.8571H32.1429V7.14286ZM35.7143 10.7143H39.2857V14.2857H35.7143V10.7143Z" fill="black"/>
<path fill-rule="evenodd" clip-rule="evenodd" d="M50 25H25V50H50V25ZM46.4286 28.5714H28.5714V46.4286H46.4286V28.5714ZM42.8571 32.1429H32.1429V42.8571H42.8571V32.1429ZM39.2857 35.7143H35.7143V39.2857H39.2857V35.7143ZM21.4286 28.5714H3.57143V46.4286H21.4286V28.5714ZM17.8571 32.1429H7.14286V42.8571H17.8571V32.1429ZM14.2857 35.7143H10.7143V39.2857H14.2857V35.7143Z" fill="black"/>
</g>
<defs>
<clipPath id="clip0_683_14809">
<rect width="50" height="50" fill="white"/>
</clipPath>
</defs>
</svg>
