<svg width="405" height="191" viewBox="0 0 405 191" fill="none" xmlns="http://www.w3.org/2000/svg">
<g opacity="0.6">
<path d="M22.6802 -33.3808H379.08V151.306H22.6802V-33.3808Z" fill="white"/>
<path fill-rule="evenodd" clip-rule="evenodd" d="M284.472 251.588L320.112 274.269H275.4L284.472 251.588ZM199.584 236.036L225.504 253.37L216.918 274.107H180.792L180.954 256.286C186.786 255.962 192.294 252.236 195.21 245.594L199.584 236.198V236.036ZM56.7 186.138C61.56 186.138 66.42 187.596 70.794 190.35L123.768 223.399L117.612 234.74C113.886 241.22 112.104 248.834 112.104 256.61V274.107H42.606L26.406 190.836C26.0634 189.283 25.7931 187.715 25.596 186.138H56.7ZM126.846 225.343L172.692 254.018C174.658 255.217 176.877 255.938 179.172 256.124V274.107H115.668V256.61C115.668 249.644 117.288 242.84 120.528 237.17L126.846 225.343ZM305.856 198.288L310.23 202.014C311.717 203.344 312.916 204.964 313.752 206.775C314.588 208.587 315.043 210.55 315.09 212.545L315.414 218.377C315.414 223.885 318.168 228.907 322.218 231.337L342.63 244.946L338.256 257.096L339.876 258.068L344.25 245.918L387.342 274.269H327.726L285.93 247.862L305.856 198.288ZM249.156 229.393L281.394 249.806L271.512 274.269H218.862L226.962 254.666L229.23 256.286C230.202 256.934 231.498 257.258 232.632 257.258C233.442 257.258 234.09 257.258 234.738 256.934C235.733 256.552 236.636 255.965 237.389 255.212C238.143 254.458 238.73 253.555 239.112 252.56L249.156 229.393ZM396.9 193.752L405 206.226V263.577C405 269.571 400.95 274.269 396.09 274.269H390.906L345.06 243.812L354.78 216.109C357.534 217.405 360.45 218.053 363.204 218.053C368.064 218.053 372.924 216.271 376.812 212.383L397.062 193.752H396.9ZM22.032 186.3L22.842 191.97L39.042 274.269H8.748C3.888 274.269 0 269.409 0 263.577V186.3H22.032ZM213.192 206.55L247.536 228.421L237.492 251.588C236.844 253.208 235.71 254.342 234.252 254.828C232.794 255.314 231.336 255.152 230.04 254.342L200.394 234.416L213.03 206.55H213.192ZM141.912 197.64L196.506 234.254L192.132 243.65C188.568 251.426 180.792 254.342 174.312 250.292L128.952 221.941L141.912 197.64ZM174.96 137.698C213.559 165.978 253.513 192.362 294.678 216.757L283.014 245.918L158.76 167.021L174.96 137.698ZM317.52 169.127L346.356 208.819C348.462 211.573 350.73 213.679 353.322 215.299L343.602 242.84L323.19 229.393C321.374 228.103 319.886 226.405 318.846 224.435C317.805 222.466 317.24 220.28 317.196 218.053L317.034 212.383C316.872 207.522 314.766 202.662 311.364 200.07L306.828 196.182L317.52 169.127ZM156.816 170.747L210.114 204.444L197.478 232.147L143.208 195.696L156.816 170.747ZM78.408 154.87L139.158 195.372L125.874 219.673L72.738 186.948L78.246 155.032L78.408 154.87ZM341.496 108.051L394.956 190.35L374.706 208.981C366.93 216.271 355.59 214.975 349.11 206.064L319.14 164.915C326.742 146.074 334.195 127.172 341.496 108.213V108.051ZM237.816 140.452L262.278 156.653C263.574 157.463 265.032 157.949 266.49 157.949C267.786 157.949 269.082 157.625 270.216 156.977L271.512 162.323C272.97 167.993 275.886 173.015 279.936 176.417L303.102 195.696L296.136 212.869C273.303 199.371 250.831 185.271 228.744 170.585L226.476 168.965L237.816 140.452ZM287.064 125.871C287.828 127.81 288.806 129.658 289.98 131.38L314.928 165.563L303.75 193.752L281.07 174.635C277.344 171.395 274.59 166.859 273.294 161.675L271.674 155.843C272.689 154.933 273.515 153.832 274.104 152.602L287.064 125.871ZM83.754 124.575L84.402 124.899L153.738 168.641L140.13 193.752L78.894 152.602L83.754 124.575ZM38.88 116.799H57.672C66.096 116.961 74.358 119.391 81.972 123.603L71.118 185.814C66.7281 183.295 61.761 181.955 56.7 181.926H46.008L29.808 155.356L38.88 116.799ZM356.4 90.716L404.676 163.619V185.328L348.462 98.4923C350.73 95.9002 353.322 93.3081 356.562 90.716H356.4ZM14.094 116.637H35.154L23.166 167.831C22.033 172.497 21.4888 177.286 21.546 182.088H0V173.825L14.256 116.799L14.094 116.637ZM29.16 157.949L43.74 181.926H25.272C25.2156 177.561 25.7054 173.207 26.73 168.965L29.16 157.787V157.949ZM190.35 109.185L234.9 138.346L223.56 167.021C207.578 156.526 191.911 145.559 176.58 134.134L190.188 109.023L190.35 109.185ZM0 116.475H12.474L0 166.211V116.475ZM85.536 -1.62754L85.698 1.28857C86.184 7.1208 87.804 12.791 90.72 17.4892C110.773 50.8325 131.132 83.9912 151.794 116.961C157.611 123.952 164.308 130.16 171.72 135.43L155.52 165.239L85.86 121.173L84.24 120.201L86.022 110.319C86.67 106.755 88.452 103.839 90.882 101.732L108.54 86.9899L107.406 85.2078L89.748 99.9504C86.994 102.38 85.05 105.783 84.402 109.833L82.782 119.391C74.844 115.017 66.258 112.749 57.672 112.749L39.852 112.587L48.6 75.9734L63.18 76.4595H63.666C67.554 76.4595 71.442 74.8394 74.52 71.9233L90.72 57.3427L89.586 55.7227L73.386 70.3032C70.6677 72.991 67.0026 74.5036 63.18 74.5154L49.086 74.0294L52.812 57.8287C55.5677 46.1542 53.5873 33.8634 47.304 23.6454L42.444 15.7071L61.884 0.316534L85.698 -1.46553L85.536 -1.62754ZM313.794 65.443L339.066 104.649C338.234 106.041 337.529 107.504 336.96 109.023L316.548 161.513L292.572 128.463C289.752 124.572 288.069 119.972 287.712 115.179L285.12 72.7333L300.348 70.3032C305.208 69.6552 309.744 68.0351 313.956 65.443H313.794ZM388.962 66.5771L405 91.364V156.653L359.64 88.1239C369.049 80.3349 378.893 73.0869 389.124 66.4151L388.962 66.5771ZM281.556 73.2193L284.31 115.341C284.488 118.154 285.033 120.931 285.93 123.603L272.484 151.468C270.54 155.518 266.328 156.977 262.926 154.708L238.626 138.508L243.972 124.899C246.726 118.257 246.402 110.481 243.162 104.325L231.012 80.9956L281.556 73.2193ZM227.124 81.4817L240.084 106.593C242.676 111.453 243 117.609 240.894 122.955L235.386 136.564L191.322 107.403L194.724 101.084C197.642 96.1792 201.585 91.9612 206.281 88.718C210.978 85.4749 216.319 83.283 221.94 82.2917L227.124 81.4817ZM170.91 4.36669L171.234 4.6907L215.298 15.2211L212.868 45.6783C212.544 50.3765 213.516 55.0746 215.46 59.1248L225.18 77.4315L221.454 78.0795C210.636 79.9749 200.987 86.0207 194.562 94.9282L173.826 69.1692C172.485 67.4177 171.718 65.2943 171.631 63.09C171.544 60.8857 172.141 58.7084 173.34 56.8567L184.356 40.6561L182.898 39.36L172.044 55.5607C170.589 57.8255 169.856 60.479 169.943 63.1696C170.03 65.8601 170.932 68.4609 172.53 70.6272L193.266 96.5482L191.808 98.6543L173.664 131.866C163.944 124.413 157.14 118.257 154.548 114.369C150.012 107.565 139.158 89.906 127.656 71.1133L170.91 4.36669ZM24.624 75.3254L44.712 75.9734L36.126 112.425H15.39L24.624 75.1634V75.3254ZM17.658 34.8239L23.814 45.1923C26.73 50.0524 27.54 56.0467 26.082 61.7169L13.446 112.425L0 112.263V48.7564L17.658 34.8239ZM329.67 50.0524L354.456 87.3139C351.635 89.8335 348.932 92.4824 346.356 95.2522L322.704 58.6388C325.331 56.0383 327.667 53.1592 329.67 50.0524ZM404.838 56.5327V88.1239L390.582 65.443C395.292 62.3529 400.044 59.3285 404.838 56.3707V56.5327ZM351.054 6.79678L386.694 63.1749C376.164 70.1412 365.796 77.7555 357.372 84.8838L331.776 46.4883L333.072 44.0582L350.892 6.79678H351.054ZM218.7 16.0311L246.726 22.8354L244.62 38.226C243.972 43.0862 244.62 47.9464 246.24 52.4825L253.854 73.0573L228.744 76.9455L218.376 56.8567C216.756 53.6166 215.946 49.8904 216.27 46.1643L218.7 16.0311ZM38.88 17.8132L44.226 26.0755C49.7993 35.1896 51.5461 46.1366 49.086 56.5327L45.36 73.8674L25.272 73.2193L28.026 62.3649C29.646 56.0467 28.512 49.2424 25.434 43.8962L19.278 33.6898L39.366 17.8132H38.88ZM248.67 23.3214L293.544 34.0138L311.526 62.2029C307.906 64.2274 303.958 65.5984 299.862 66.2531L255.96 72.7333L247.86 51.6725C246.402 47.4603 245.916 42.9242 246.564 38.55L248.508 23.1594L248.67 23.3214ZM110.322 -3.57161C114.696 -3.89563 119.07 -1.95155 122.148 1.9366L147.258 33.8518L125.388 67.5491C114.77 50.0729 104.186 32.5762 93.636 15.0591C91.0857 10.7721 89.5868 5.94219 89.262 0.964562L89.1 -1.95155L110.322 -3.57161ZM396.09 -35.8109C397.375 -35.7738 398.634 -35.4313 399.76 -34.8115C400.887 -34.1917 401.85 -33.3126 402.57 -32.2467L388.962 -8.26979C385.398 -1.78955 385.398 6.63478 388.962 12.953L404.838 40.1701V51.5105C399.274 54.9314 393.765 58.442 388.314 62.0409L352.026 4.6907L371.466 -35.8109H396.09ZM276.858 -35.8109L314.28 25.1035C315.274 27.7847 316.579 30.3402 318.168 32.7178L327.24 46.6503C325.315 49.768 323.031 52.6497 320.436 55.2366L261.63 -35.8109H276.858ZM0 5.50073L16.524 33.0418L0 46.3263V5.50073ZM311.04 -18.1522L348.3 3.88067L329.994 41.9521C329.994 42.4382 329.67 42.7622 329.508 43.0862L320.922 30.1257C318.24 25.909 316.525 21.151 315.9 16.1931L311.04 -17.8282V-18.1522ZM403.866 -30.1406C404.616 -28.5155 405.003 -26.7464 405 -24.9564V36.6059L390.744 11.819C389.156 8.94189 388.322 5.70908 388.322 2.42262C388.322 -0.863841 389.156 -4.09666 390.744 -6.97375L403.866 -30.1406ZM116.478 -35.8109L167.832 2.26061L148.392 32.2318L123.444 0.640548C119.88 -3.73362 115.02 -5.8397 110.16 -5.67769L88.776 -4.05763L86.508 -35.8109H116.64H116.478ZM5.346 -35.0008L38.07 16.1931L18.144 32.0698L0 1.9366V-25.2804C0 -29.6546 2.268 -33.3808 5.346 -35.0008ZM305.046 -35.8109L312.336 16.6792L312.66 18.7852L278.964 -35.8109H305.208H305.046ZM248.184 -35.8109L283.338 18.4612L219.834 3.23265L222.912 -35.6488H248.184V-35.8109ZM83.106 -35.8109L85.374 -3.73362L61.074 -1.95155L40.986 13.9251L9.234 -35.8109H83.106ZM219.348 -35.8109L216.432 2.42262L178.038 -6.81174L182.088 -12.968C185.814 -18.6382 187.272 -25.9285 186.462 -32.8947L185.976 -35.8109H219.348ZM367.416 -35.8109L349.272 1.77459L311.04 -20.7443L308.934 -35.8109H367.578H367.416ZM182.412 -35.8109L183.06 -32.2467C183.87 -26.4145 182.574 -20.2583 179.496 -15.7221L174.636 -7.94578L136.728 -35.8109H182.412Z" fill="#E3E3E3"/>
<path fill-rule="evenodd" clip-rule="evenodd" d="M73.3858 197.478L110.16 221.131C113.886 223.561 115.02 229.231 112.914 233.443L111.78 235.55C109.322 240.314 107.992 245.58 107.892 250.94L107.568 274.269H47.6278L33.3718 202.662C32.2378 197.154 35.6398 191.808 40.3378 191.808H53.2978C60.2638 191.646 67.2298 193.752 73.3858 197.64V197.478ZM213.03 214.651C213.678 213.031 215.46 212.221 216.918 213.031L240.246 227.611C241.704 228.421 242.19 230.527 241.542 232.471L236.358 244.622C235.062 247.862 231.66 249.158 228.906 247.538L207.846 233.929C206.55 232.957 205.902 230.689 206.712 229.069L213.03 214.651ZM339.39 124.251C340.362 121.011 343.764 120.525 345.546 123.117L386.046 185.166C387.342 187.11 387.018 190.026 385.398 191.484L380.052 196.506C378.432 198.126 376.164 197.64 374.868 195.696L337.446 135.754C336.636 134.458 336.474 132.838 336.96 131.38L339.39 124.251ZM170.262 15.2211C171.882 12.953 173.988 11.9809 176.418 12.305L191.97 15.5451C195.21 16.3551 197.64 20.4053 196.992 24.6174C196.506 28.3436 193.752 31.0977 190.512 30.9357L185.652 30.6117C183.546 30.6117 181.602 31.5837 180.306 33.6898L166.374 55.7226C165.057 57.844 164.373 60.2969 164.402 62.7935C164.43 65.2901 165.171 67.7266 166.536 69.8172L183.546 93.9561C184.485 95.3611 185.012 97.0003 185.07 98.6891C185.127 100.378 184.711 102.049 183.87 103.514L175.77 116.637C173.826 120.039 169.938 120.849 167.184 118.419L163.62 115.503C160.38 112.587 157.302 109.023 155.034 105.135L137.376 75.1634C135.594 72.4093 135.756 68.6831 137.376 65.929L170.262 15.2211ZM311.04 74.0293C312.336 73.7053 313.794 74.1913 314.766 75.6494L331.614 101.894C332.424 103.19 332.586 104.811 331.938 106.431L329.508 112.911C328.374 115.827 324.972 116.313 323.352 113.721L304.074 82.4536C302.454 79.8615 303.588 76.2974 306.18 75.4874L311.04 74.0293Z" fill="#B4CE9B"/>
<path fill-rule="evenodd" clip-rule="evenodd" d="M383.454 301L157.626 155.842C144.317 147.052 133.227 135.296 125.226 121.497L21.2222 -53.9556L32.5622 -64L136.89 111.453C143.697 123.168 153.123 133.149 164.43 140.614L390.096 285.933L383.616 301H383.454Z" fill="#E5CBA8"/>
<path fill-rule="evenodd" clip-rule="evenodd" d="M384.264 299.218L158.436 153.898C145.395 145.265 134.528 133.732 126.684 120.201L22.6802 -55.2516L31.2662 -62.5419L135.27 112.749C142.56 125.061 152.28 135.43 163.458 142.558L389.124 287.878L384.264 299.218Z" fill="#FFEBD2"/>
</g>
</svg>
